<?xml version="1.0" encoding="UTF-8"?>
<!DOCTYPE svg PUBLIC "-//W3C//DTD SVG 1.1//EN" "http://www.w3.org/Graphics/SVG/1.1/DTD/svg11.dtd">
<!-- Creator: CorelDRAW 2018 (64 Bit) -->
<svg xmlns="http://www.w3.org/2000/svg" xml:space="preserve" width="215.9mm" height="279.4mm" version="1.1" style="shape-rendering:geometricPrecision; text-rendering:geometricPrecision; image-rendering:optimizeQuality; fill-rule:evenodd; clip-rule:evenodd"
viewBox="0 0 21590 27940"
 xmlns:xlink="http://www.w3.org/1999/xlink"
 enable-background="new 20 0 57.6 19.5">
 <defs>
  <style type="text/css">
   <![CDATA[
    .fil0 {fill:black}
   ]]>
  </style>
 </defs>
 <g id="Capa_x0020_1">
  <metadata id="CorelCorpID_0Corel-Layer"/>
  <g id="_1402293711056">
   <path class="fil0" d="M2864.46 15131.86l2802.41 0 452.92 2689.18 -3708.25 0 452.92 -2689.18zm3170.41 0l537.84 0 0 2689.18 -84.92 0c0,-217.54 -437.23,-2656.47 -452.92,-2689.18zm-3991.32 2689.18l-56.61 -2689.18 509.53 0c-37.23,77.58 -95.37,515.7 -117.22,647.08 -38.39,230.89 -335.7,1872.18 -335.7,2042.1zm4444.24 -5859.59l84.92 0 0 2717.49 -509.53 0c0,-218.92 314.18,-1944.82 376.2,-2369.59 13.93,-95.35 48.41,-226.4 48.41,-347.9zm-4500.85 0l262.46 1351.05c36.5,208.2 77.85,436.92 117.64,674.95 35.56,212.66 101.12,480.74 101.12,691.49l-481.22 0 0 -2717.49zm396.3 0l3764.85 0 -420.6 2410.11c-19.43,118.92 -5.76,307.38 -117.23,307.38l-2689.19 0c-114.79,0 -132.65,-398.89 -169.83,-622.76l-238.57 -1403.25c-22.01,-132.33 -95.73,-621.23 -129.43,-691.48zm-849.22 -424.61l0 6652.19c0,132.14 66.01,198.15 198.16,198.15l5066.98 0c95.39,0 198.16,-50.02 198.16,-141.54l0 -6708.8c0,-86.91 -26.22,-169.83 -113.24,-169.83l-5236.83 0c-87.01,0 -113.23,82.92 -113.23,169.83z"/>
   <path class="fil0" d="M8950.51 12046.37l0 3679.94c0,137.42 205.96,84.91 566.14,84.91l0 -2915.63c20.78,23.9 39.94,45.56 64.79,76.75l1018.67 1387.45c187.55,251.39 352.61,478.76 542.17,731.64 100.19,133.68 184.29,238.9 276.55,374.51 48.76,71.66 81.55,111.17 131.74,179.65 159.49,217.59 38.95,165.63 655.27,165.63l0 -3849.77c-666.19,0 -537.84,-126.11 -537.84,651.07l0 2264.57 -2065.44 -2775.09c-126.45,-185.11 -121,-140.55 -567.13,-140.55 -65.22,0 -84.92,19.7 -84.92,84.92z"/>
   <path class="fil0" d="M12970.13 12046.37l0 3679.94c0,130.57 159.12,84.91 481.22,84.91 137.31,0 84.93,-267.05 84.92,-537.83 -0.01,-631.03 -96.08,-365.18 361.13,-884.38 41.37,-46.97 291.83,-313.48 318.24,-332.83 99.66,148.82 219.63,282.46 331.68,432.63 112.93,151.35 209.45,290.69 328.19,436.09 120.45,147.5 221.15,286.76 330.88,433.41 113.74,152 232.92,293.47 339.7,452.91l651.06 0c-55.31,-104.53 -111.89,-168.2 -186.04,-266.86l-602.48 -812.89c-137.1,-182.72 -259.21,-355.1 -396.3,-537.83 -131.6,-175.42 -299.7,-371.78 -400.38,-562.06 119.8,-178.91 230.08,-249.65 359.64,-404.66 178.92,-214.04 1082.42,-1153.45 1112.33,-1265.47 -127.54,0 -460.14,-16.68 -564.16,1.99 -116.7,20.93 -578.54,589.06 -717.15,726.52l-695.98 775.99c-88.25,110.62 -185.51,174.46 -275.34,290.8 -90.75,117.53 -178.86,221.65 -295.02,299.43l0 -1613.51c0.02,-95.47 1.72,-190.35 2.46,-285.52 1.82,-237.42 40.58,-195.7 -483.68,-195.7 -65.22,0 -84.92,19.7 -84.92,84.92z"/>
   <path class="fil0" d="M18235.27 12584.21c4.4,5.07 10.74,6.69 12.44,15.86l45.1 68.14c22.05,40.09 35.39,77.1 51.84,117.99 125.96,312.92 638.5,1417.72 683.21,1609.67l-1556.88 0c68.18,-128.88 123.5,-288.2 188.47,-434.28 71.63,-161.02 127.59,-292.75 195.69,-455.38 70.47,-168.3 123.63,-288.65 194.11,-456.95 64.45,-153.9 149.04,-306.31 186.02,-465.05zm-1924.89 3227.01l566.14 0c55.55,-238.43 354.59,-773.03 367.99,-934.13l2009.82 0 396.3 934.13 594.45 0c-516.26,-1075.94 -1082.23,-2519.67 -1603.94,-3632.88 -127.58,-272.2 20.06,-216.89 -575.72,-216.89 -113.14,0 -171.7,238.16 -255.24,424.13 -73.27,163.09 -142.27,314.31 -217.85,489.82 -118.44,275.07 -1269.03,2780.57 -1281.95,2935.82z"/>
   <path class="fil0" d="M3741.98 10064.87c0,-736.69 1047.37,-756.01 1047.37,0 0,636.87 -1047.37,657.38 -1047.37,0zm-481.22 -56.61c0,568.88 441.36,1019.05 934.14,1019.05l141.53 0c492.79,0 934.14,-450.17 934.14,-1019.05 0,-533.89 -477.34,-971.34 -993.2,-985.71 -269.77,-7.51 -554.39,142.13 -698.99,284.27 -158.2,155.52 -317.62,399.79 -317.62,701.44z"/>
   <polygon class="fil0" points="8044.68,15782.92 8469.29,15782.92 8469.29,11933.14 8044.68,11933.14 "/>
   <path class="fil0" d="M17725.74 17792.73c0,107.16 66.03,84.92 226.46,84.92l0 -1075.67c184.03,134.84 735.19,1075.67 877.52,1075.67l169.84 0 0 -1443.66 -226.46 0 0 1047.36c-35.71,-23.91 -764.76,-943.1 -792.6,-1047.36l-254.76 0 0 1358.74z"/>
   <path class="fil0" d="M12630.44 17679.5l-396.29 0 0 -1047.36c306.01,0 586.7,-46.29 784.17,149.95 308.1,306.18 98.42,897.41 -387.88,897.41zm-622.76 113.23c0,141.71 241.23,84.92 622.76,84.92 227.99,0 410.18,-89.3 531.84,-204.15 330.27,-311.8 299.59,-812.04 -57.47,-1091.12 -28.05,-21.93 -71.04,-52.73 -100.91,-68.94 -231.79,-125.76 -661.74,-79.45 -996.22,-79.45l0 1358.74z"/>
   <path class="fil0" d="M16140.53 17169.97c0,-494.23 591.45,-736.9 928.62,-419.09 544.53,513.29 -244.43,1287.08 -767.36,767.37 -49.98,-49.66 -78.5,-86.14 -105.58,-149.19 -10.2,-23.73 -55.68,-171.11 -55.68,-199.09zm-226.45 -28.3c0,398.22 309.72,709.75 747.2,753.73 671.01,67.46 1090.94,-810.18 591.01,-1271.03 -552.88,-509.66 -1338.21,-49.93 -1338.21,517.3z"/>
   <path class="fil0" d="M9629.88 17226.58l-396.3 0 0 -594.44c383.95,0 735.98,-76.76 735.98,311.38 0,192.35 -144.12,283.06 -339.68,283.06zm-622.76 651.07l226.46 0 0 -452.91 452.92 0c37.43,140.2 217.32,312.71 254.76,452.91l254.77 0c-42.1,-157.64 -265.29,-336.89 -311.38,-509.53 459.61,-107.07 400.11,-934.13 -169.85,-934.13l-707.68 0 0 1443.66z"/>
   <path class="fil0" d="M11045.24 16688.75c87.47,64.08 288.71,553.75 311.38,651.06l-566.14 0c43.44,-186.45 241.67,-493.74 254.76,-651.06zm-735.98 1188.9l254.76 0c10.39,-124.93 80.26,-198.17 113.23,-339.68l764.29 0c58.33,110.23 109.67,202.89 141.54,339.68l254.76 0 -500.21 -1113.3c-140.48,-301.53 -67.87,-330.36 -320.7,-330.36 -80.5,0 -93.27,59.88 -122.89,131.88 -36.43,88.57 -44.83,115.26 -84.72,198.33l-414.66 915.79c-31.79,70.74 -49.42,129.65 -85.4,197.66z"/>
   <path class="fil0" d="M20131.85 17481.35c0,129.19 -142.02,198.15 -283.07,198.15 -333.12,0 -347.29,-147.27 -537.84,-198.15 -20.47,87.85 -36.15,81.99 -56.61,169.85 226.73,338.6 1103.98,301.44 1103.98,-113.23 0,-273.83 -19.86,-354.13 -378.52,-470.7 -166.29,-54.06 -414.09,-91.22 -414.09,-293.6 0,-160.86 237.73,-141.53 339.69,-141.53 182.01,0 225.61,80.05 368,113.22 9.9,-118.98 32.17,-93.26 56.61,-198.14 -556.18,-372.44 -1237.44,35.12 -947.8,466.5 166.6,248.11 749.65,192.81 749.65,467.63z"/>
   <path class="fil0" d="M7648.37 16632.14l481.23 0 0 1245.51c315.04,0 226.46,141.52 226.46,-1245.51l452.91 0 0 -198.15 -1160.6 0 0 198.15z"/>
   <path class="fil0" d="M14074.11 16632.14l452.92 0 0 1160.59c0,107.16 66.03,84.92 226.45,84.92l0 -1245.51 481.22 0 0 -198.15 -1160.59 0 0 198.15z"/>
   <polygon class="fil0" points="13649.51,17877.65 13875.96,17877.65 13875.96,16433.99 13649.51,16433.99 "/>
   <polygon class="fil0" points="15432.86,17877.65 15659.31,17877.65 15659.31,16433.99 15432.86,16433.99 "/>
  </g>
 </g>
</svg>
